HIERARCHY
ROOT Hips
{
	OFFSET 0.000000 83.214638 0.000000
	CHANNELS 6 Xposition Yposition Zposition Xrotation Yrotation Zrotation
	JOINT Pelvis
	{
		OFFSET 0.000000 0.000000 0.000000
		CHANNELS 3 Xrotation Yrotation Zrotation
		JOINT LeftUpLeg
		{
			OFFSET 8.479700 -4.795502 -0.379100
			CHANNELS 3 Xrotation Yrotation Zrotation
			JOINT LeftLeg
			{
				OFFSET 0.024144 -32.555107 0.112900
				CHANNELS 3 Xrotation Yrotation Zrotation
				JOINT LeftFoot
				{
					OFFSET -0.024144 -32.638630 -3.012600
					CHANNELS 3 Xrotation Yrotation Zrotation
					JOINT LeftToeBase
					{
						OFFSET 0.970200 -13.225400 11.864200
						CHANNELS 3 Xrotation Yrotation Zrotation
						End Site
						{
							OFFSET 0.000000 12.319262 0.000000
						}
					}
					JOINT LFootTongue
					{
						OFFSET 1.142400 -1.059800 6.665200
						CHANNELS 3 Xrotation Yrotation Zrotation
						End Site
						{
							OFFSET 0.000000 12.319262 0.000000
						}
					}
				}
				JOINT LeftPantLeg
				{
					OFFSET 0.918482 -16.533964 -2.284700
					CHANNELS 3 Xrotation Yrotation Zrotation
					End Site
					{
						OFFSET 0.350399 24.744368 0.000000
					}
				}
			}
		}
		JOINT RightUpLeg
		{
			OFFSET -8.479700 -4.795502 -0.379100
			CHANNELS 3 Xrotation Yrotation Zrotation
			JOINT RightLeg
			{
				OFFSET -0.023144 -32.555092 0.112900
				CHANNELS 3 Xrotation Yrotation Zrotation
				JOINT RightFoot
				{
					OFFSET 0.023144 -32.638641 -3.012700
					CHANNELS 3 Xrotation Yrotation Zrotation
					JOINT RightToeBase
					{
						OFFSET -0.970200 -13.225400 11.864200
						CHANNELS 3 Xrotation Yrotation Zrotation
						End Site
						{
							OFFSET 0.000000 12.319244 0.000000
						}
					}
					JOINT RFootTongue
					{
						OFFSET -1.142200 -1.059800 6.665200
						CHANNELS 3 Xrotation Yrotation Zrotation
						End Site
						{
							OFFSET 0.000000 12.319243 0.000000
						}
					}
				}
				JOINT RightPantLeg
				{
					OFFSET -0.919482 -16.533978 -2.284800
					CHANNELS 3 Xrotation Yrotation Zrotation
					End Site
					{
						OFFSET -0.350400 24.744419 0.000000
					}
				}
			}
		}
	}
	JOINT Spine
	{
		OFFSET 0.000000 7.722000 1.166200
		CHANNELS 3 Xrotation Yrotation Zrotation
		JOINT Spine1
		{
			OFFSET 0.000000 12.024101 0.248800
			CHANNELS 3 Xrotation Yrotation Zrotation
			JOINT Spine2
			{
				OFFSET 0.000000 11.502998 -0.491200
				CHANNELS 3 Xrotation Yrotation Zrotation
				JOINT Neck
				{
					OFFSET 0.000000 18.430702 -3.123100
					CHANNELS 3 Xrotation Yrotation Zrotation
					JOINT Head
					{
						OFFSET 0.000000 9.051102 1.034000
						CHANNELS 3 Xrotation Yrotation Zrotation
						JOINT HairB
						{
							OFFSET 0.208400 24.786102 24.822300
							CHANNELS 3 Xrotation Yrotation Zrotation
							End Site
							{
								OFFSET 0.000000 32.263779 0.000000
							}
						}
						JOINT HairA
						{
							OFFSET -7.081100 24.428299 23.196600
							CHANNELS 3 Xrotation Yrotation Zrotation
							End Site
							{
								OFFSET 0.000000 32.263779 0.000000
							}
						}
						JOINT Hat
						{
							OFFSET 16.728800 15.048294 -15.439601
							CHANNELS 3 Xrotation Yrotation Zrotation
							End Site
							{
								OFFSET 0.000000 32.263779 0.000000
							}
						}
					}
				}
				JOINT LeftShoulder
				{
					OFFSET 6.197800 13.665199 -4.064700
					CHANNELS 3 Xrotation Yrotation Zrotation
					JOINT LeftArm
					{
						OFFSET 7.778100 -0.187103 -1.709300
						CHANNELS 3 Xrotation Yrotation Zrotation
						JOINT LeftForeArm
						{
							OFFSET 22.049376 0.000000 0.000000
							CHANNELS 3 Xrotation Yrotation Zrotation
							JOINT LeftHand
							{
								OFFSET 23.009392 0.000000 0.000000
								CHANNELS 3 Xrotation Yrotation Zrotation
								JOINT LeftHandThumb1
								{
									OFFSET 3.507191 -2.063065 3.133727
									CHANNELS 3 Xrotation Yrotation Zrotation
									JOINT LeftHandThumb2
									{
										OFFSET 3.101337 -1.790558 1.790558
										CHANNELS 3 Xrotation Yrotation Zrotation
										JOINT LeftHandThumb3
										{
											OFFSET 3.058640 -1.765907 1.765906
											CHANNELS 3 Xrotation Yrotation Zrotation
											End Site
											{
												OFFSET -0.415260 3.926476 -0.049563
											}
										}
									}
								}
								JOINT LeftHandIndex1
								{
									OFFSET 11.334419 -0.901459 3.706815
									CHANNELS 3 Xrotation Yrotation Zrotation
									JOINT LeftHandIndex2
									{
										OFFSET 3.283112 0.000000 0.000000
										CHANNELS 3 Xrotation Yrotation Zrotation
										JOINT LeftHandIndex3
										{
											OFFSET 3.323853 0.000000 0.000000
											CHANNELS 3 Xrotation Yrotation Zrotation
											End Site
											{
												OFFSET -1.135597 3.097809 0.402452
											}
										}
									}
								}
								JOINT LeftHandMiddle1
								{
									OFFSET 11.335861 0.000000 0.000000
									CHANNELS 3 Xrotation Yrotation Zrotation
									JOINT LeftHandMiddle2
									{
										OFFSET 3.410492 0.000000 0.000000
										CHANNELS 3 Xrotation Yrotation Zrotation
										JOINT LeftHandMiddle3
										{
											OFFSET 3.312172 0.000000 0.000000
											CHANNELS 3 Xrotation Yrotation Zrotation
											End Site
											{
												OFFSET -1.150200 3.080154 0.400270
											}
										}
									}
								}
								JOINT LeftHandRing1
								{
									OFFSET 11.514786 -0.013176 -3.003090
									CHANNELS 3 Xrotation Yrotation Zrotation
									JOINT LeftHandRing2
									{
										OFFSET 3.053307 0.000000 0.000000
										CHANNELS 3 Xrotation Yrotation Zrotation
										JOINT LeftHandRing3
										{
											OFFSET 3.295807 0.000000 0.000000
											CHANNELS 3 Xrotation Yrotation Zrotation
											End Site
											{
												OFFSET -1.281006 3.013344 0.375733
											}
										}
									}
								}
								JOINT LeftHandPinky1
								{
									OFFSET 10.518692 -0.960396 -5.730441
									CHANNELS 3 Xrotation Yrotation Zrotation
									JOINT LeftHandPinky2
									{
										OFFSET 2.861649 0.000000 0.000000
										CHANNELS 3 Xrotation Yrotation Zrotation
										JOINT LeftHandPinky3
										{
											OFFSET 2.863380 0.000000 0.000000
											CHANNELS 3 Xrotation Yrotation Zrotation
											End Site
											{
												OFFSET -0.843597 2.711159 0.369971
											}
										}
									}
								}
							}
							JOINT LSleeve
							{
								OFFSET 6.676277 -0.344902 -1.011730
								CHANNELS 3 Xrotation Yrotation Zrotation
								End Site
								{
									OFFSET 0.000000 14.885353 0.000000
								}
							}
						}
					}
				}
				JOINT RightShoulder
				{
					OFFSET -6.197800 13.665199 -4.064700
					CHANNELS 3 Xrotation Yrotation Zrotation
					JOINT RightArm
					{
						OFFSET -7.778100 -0.187103 -1.709300
						CHANNELS 3 Xrotation Yrotation Zrotation
						JOINT RightForeArm
						{
							OFFSET -22.049376 0.000000 0.000000
							CHANNELS 3 Xrotation Yrotation Zrotation
							JOINT RightHand
							{
								OFFSET -23.009392 0.000000 0.000000
								CHANNELS 3 Xrotation Yrotation Zrotation
								JOINT RightHandThumb1
								{
									OFFSET -3.507191 -2.063065 3.133727
									CHANNELS 3 Xrotation Yrotation Zrotation
									JOINT RightHandThumb2
									{
										OFFSET -3.101337 -1.790558 1.790558
										CHANNELS 3 Xrotation Yrotation Zrotation
										JOINT RightHandThumb3
										{
											OFFSET -3.058640 -1.765907 1.765906
											CHANNELS 3 Xrotation Yrotation Zrotation
											End Site
											{
												OFFSET 0.415260 3.926476 -0.049563
											}
										}
									}
								}
								JOINT RightHandIndex1
								{
									OFFSET -11.334419 -0.901459 3.706815
									CHANNELS 3 Xrotation Yrotation Zrotation
									JOINT RightHandIndex2
									{
										OFFSET -3.283112 0.000000 0.000000
										CHANNELS 3 Xrotation Yrotation Zrotation
										JOINT RightHandIndex3
										{
											OFFSET -3.323853 0.000000 0.000000
											CHANNELS 3 Xrotation Yrotation Zrotation
											End Site
											{
												OFFSET 1.135597 3.097809 0.402452
											}
										}
									}
								}
								JOINT RightHandMiddle1
								{
									OFFSET -11.335861 0.000000 0.000000
									CHANNELS 3 Xrotation Yrotation Zrotation
									JOINT RightHandMiddle2
									{
										OFFSET -3.410492 0.000000 0.000000
										CHANNELS 3 Xrotation Yrotation Zrotation
										JOINT RightHandMiddle3
										{
											OFFSET -3.312172 0.000000 0.000000
											CHANNELS 3 Xrotation Yrotation Zrotation
											End Site
											{
												OFFSET 1.150200 3.080154 0.400270
											}
										}
									}
								}
								JOINT RightHandRing1
								{
									OFFSET -11.514786 -0.013176 -3.003090
									CHANNELS 3 Xrotation Yrotation Zrotation
									JOINT RightHandRing2
									{
										OFFSET -3.053307 0.000000 0.000000
										CHANNELS 3 Xrotation Yrotation Zrotation
										JOINT RightHandRing3
										{
											OFFSET -3.295807 0.000000 0.000000
											CHANNELS 3 Xrotation Yrotation Zrotation
											End Site
											{
												OFFSET 1.281006 3.013344 0.375733
											}
										}
									}
								}
								JOINT RightHandPinky1
								{
									OFFSET -10.518692 -0.960396 -5.730441
									CHANNELS 3 Xrotation Yrotation Zrotation
									JOINT RightHandPinky2
									{
										OFFSET -2.861649 0.000000 0.000000
										CHANNELS 3 Xrotation Yrotation Zrotation
										JOINT RightHandPinky3
										{
											OFFSET -2.863380 0.000000 0.000000
											CHANNELS 3 Xrotation Yrotation Zrotation
											End Site
											{
												OFFSET 0.843597 2.711159 0.369971
											}
										}
									}
								}
							}
							JOINT RSleeve
							{
								OFFSET -6.676277 -0.344902 -1.011730
								CHANNELS 3 Xrotation Yrotation Zrotation
								End Site
								{
									OFFSET 0.000000 14.885353 0.000000
								}
							}
						}
					}
				}
				JOINT Backpack
				{
					OFFSET 0.000000 -2.471497 36.677502
					CHANNELS 3 Xrotation Yrotation Zrotation
					End Site
					{
						OFFSET 0.000000 20.427315 0.000000
					}
				}
				JOINT Hood
				{
					OFFSET 0.000000 18.754097 -10.431000
					CHANNELS 3 Xrotation Yrotation Zrotation
					JOINT Hood1
					{
						OFFSET 0.000000 -5.011002 -7.685901
						CHANNELS 3 Xrotation Yrotation Zrotation
						End Site
						{
							OFFSET 0.000000 9.175140 0.000000
						}
					}
				}
				JOINT LHoodieString
				{
					OFFSET 5.250500 16.397697 3.089900
					CHANNELS 3 Xrotation Yrotation Zrotation
					JOINT LHoodieString1
					{
						OFFSET 0.257700 -6.364304 3.694600
						CHANNELS 3 Xrotation Yrotation Zrotation
						JOINT LHoodieString2
						{
							OFFSET 0.000000 -9.643799 2.679100
							CHANNELS 3 Xrotation Yrotation Zrotation
							End Site
							{
								OFFSET 0.000000 10.009018 0.000000
							}
						}
					}
				}
				JOINT RHoodieString
				{
					OFFSET -5.250500 16.397697 3.089900
					CHANNELS 3 Xrotation Yrotation Zrotation
					JOINT RHoodieString1
					{
						OFFSET -0.257700 -6.364304 3.694600
						CHANNELS 3 Xrotation Yrotation Zrotation
						JOINT RHoodieString2
						{
							OFFSET 0.000000 -9.643799 2.679100
							CHANNELS 3 Xrotation Yrotation Zrotation
							End Site
							{
								OFFSET 0.000000 10.009018 0.000000
							}
						}
					}
				}
			}
			JOINT LBackpack_Strap
			{
				OFFSET 15.223200 -7.719803 -6.610900
				CHANNELS 3 Xrotation Yrotation Zrotation
				End Site
				{
					OFFSET 0.000000 16.040596 0.000000
				}
			}
			JOINT RBackpack_Strap
			{
				OFFSET -15.223000 -7.719803 -6.610900
				CHANNELS 3 Xrotation Yrotation Zrotation
				End Site
				{
					OFFSET 0.000000 16.040596 0.000000
				}
			}
		}
	}
	JOINT BoyFacialAnim_Joint
	{
		OFFSET 1.000000 -82.208099 -1.550900
		CHANNELS 3 Xrotation Yrotation Zrotation
		End Site
		{
			OFFSET 0.000000 30.012791 0.000000
		}
	}
}
MOTION
Frames: 5
Frame Time: 0.033333
4.497243 79.171883 30.862432 -0.362196 7.740951 -4.383815 0.000000 -0.000001 0.000000 15.322988 6.088824 12.379666 14.722828 -4.280775 -0.467411 -10.336340 7.621498 -9.656796 -0.000002 0.000000 0.000000 -0.000002 0.000000 0.000000 -0.000002 0.000001 0.000000 -31.928635 -8.361903 0.372982 23.109580 4.725485 1.581304 4.655881 1.137559 -2.032292 0.000000 -0.000001 -0.000000 0.000000 -0.000001 -0.000000 -0.000002 0.000000 0.000000 14.056828 -2.103905 3.084130 -2.817028 -2.731547 1.460194 -4.348694 -2.610831 1.249691 -5.905946 -1.032700 4.089890 -6.552318 2.142715 -6.501103 0.000001 0.000000 -0.000000 0.000001 0.000000 -0.000000 0.000001 0.000000 -0.000000 1.933704 0.486206 -3.785020 -6.151811 -15.232495 -72.797017 10.231948 -18.689834 -7.235826 8.046181 -7.270041 11.065637 -4.824079 12.520632 11.413817 4.126414 8.972306 1.382283 -0.000001 0.000001 0.000001 1.056214 -5.235267 -22.799580 -0.030830 0.088944 -21.538165 -0.000003 -0.000001 -0.000005 -0.397656 -4.220527 -26.432492 0.018264 0.103473 -24.719949 -0.000002 0.000000 0.000000 -1.186808 -4.185238 -29.108921 -0.024529 0.052240 -28.552901 -0.000002 -0.000003 -0.000006 -3.297642 -4.366702 -35.397735 0.011990 0.038849 -31.250451 -0.000001 0.000003 0.000004 -0.000001 0.000002 0.000000 2.812740 0.766501 6.249635 2.110222 9.677228 71.378564 7.307971 16.316497 5.558243 -12.447145 -0.369365 -8.611510 -0.730106 -19.654347 -5.117938 4.764907 -11.119787 -2.039421 -0.000002 0.000001 -0.000001 0.966403 1.373418 21.928435 -0.054676 -0.122736 19.727159 0.000000 0.000001 0.000002 -0.281728 1.607170 24.520693 -0.006580 -0.051423 21.809871 0.000003 -0.000000 -0.000002 -1.248002 2.430823 28.065819 -0.028338 -0.028398 24.776810 -0.000001 0.000000 0.000004 -2.752470 3.742203 33.005974 0.036739 -0.037870 27.506119 -0.000002 -0.000003 -0.000002 0.000003 -0.000001 0.000000 -0.000000 0.000000 -0.000000 -0.000000 0.000000 -0.000000 -0.000000 0.000000 -0.000000 -0.000000 0.000000 -0.000000 -0.000000 0.000000 -0.000000 -0.000000 0.000000 -0.000000 -0.000000 0.000000 -0.000000 -0.000000 0.000000 -0.000000 -0.000000 0.000000 -0.000000 0.000000 -0.000000 0.000000 0.000000 -0.000000 0.000000 0.000000 -0.000001 0.000000 
3.843919 79.228607 33.750294 -0.937423 6.743172 -4.655021 0.000000 -0.000000 0.000000 15.383082 5.605193 13.020976 18.003761 -1.439829 0.080321 -5.321634 6.618627 -10.795164 0.000002 -0.000001 0.000000 0.000002 -0.000001 0.000000 -0.000003 -0.000001 0.000000 -30.369531 -7.711929 2.182653 25.321333 3.663890 1.173130 3.928042 1.462456 -2.238394 -0.000000 0.000001 0.000000 -0.000000 0.000001 0.000000 -0.000001 -0.000000 -0.000000 14.479769 -1.767139 4.052299 -3.099748 -2.491859 0.950871 -4.386905 -2.374342 0.813970 -5.502299 -0.853356 4.580128 -7.382100 2.501863 -6.468590 -0.000001 -0.000000 0.000000 -0.000001 -0.000000 0.000000 -0.000001 -0.000000 0.000000 1.956211 0.676732 -3.130475 -4.949821 -14.656640 -73.217442 11.566604 -19.551297 -6.308130 4.771829 -6.525091 11.586321 -4.859064 12.652668 11.387196 4.021107 8.887249 1.465066 0.000000 -0.000001 -0.000003 0.922711 -5.536455 -23.337267 -0.031029 0.086310 -21.693712 -0.000000 -0.000001 -0.000000 -0.448492 -4.571851 -26.946816 0.015357 0.084057 -24.725029 -0.000002 0.000001 0.000000 -1.293310 -4.672730 -29.920620 -0.022617 0.040852 -28.499207 0.000003 -0.000003 -0.000004 -3.351145 -4.906847 -35.873550 0.010104 0.034003 -31.259594 -0.000002 -0.000000 -0.000000 -0.000003 0.000000 0.000001 2.893723 0.455427 6.659918 1.725589 11.400248 70.769366 6.814400 16.305518 6.003859 -13.069049 0.180369 -9.567188 -0.760409 -20.226118 -5.090963 4.621676 -11.088952 -2.214527 -0.000000 0.000001 -0.000000 0.788278 1.657000 22.626836 -0.053118 -0.116981 19.767761 0.000001 0.000001 0.000000 -0.275824 2.010926 25.066203 -0.009888 -0.026585 21.523699 0.000001 0.000001 0.000002 -1.238149 3.107497 28.923109 -0.025885 -0.019512 24.330602 -0.000000 0.000001 0.000004 -2.650574 4.513163 33.439722 0.032876 -0.033646 27.133027 -0.000002 0.000000 0.000002 -0.000000 -0.000001 -0.000000 -0.000000 -0.000000 -0.000000 -0.000000 -0.000000 -0.000000 -0.000000 -0.000000 -0.000000 -0.000000 -0.000000 -0.000000 -0.000000 -0.000000 -0.000000 -0.000000 -0.000000 -0.000000 -0.000000 -0.000000 -0.000000 -0.000000 -0.000000 -0.000000 -0.000000 -0.000000 -0.000000 0.000000 0.000000 -0.000000 0.000000 0.000000 -0.000000 0.000000 -0.000000 0.000000 
3.151383 79.304619 36.611458 -1.346720 5.551862 -4.822079 -0.000000 -0.000000 -0.000000 11.859666 7.245658 13.759450 25.046818 0.278028 1.145513 2.683266 3.581138 -9.012287 -0.000000 0.000000 -0.000001 -0.000000 0.000000 -0.000001 0.000003 0.000000 0.000000 -28.816742 -6.768772 3.946799 27.331033 3.588184 1.019132 2.378313 1.179689 -3.107210 0.000000 -0.000000 -0.000000 0.000000 -0.000000 -0.000000 -0.000000 0.000000 0.000000 14.644481 -1.410573 4.541611 -3.402813 -2.220714 0.615817 -4.451309 -2.107602 0.535223 -4.608254 -0.627103 4.999660 -7.914314 2.788951 -6.188905 -0.000001 -0.000000 0.000000 -0.000001 -0.000000 0.000000 -0.000001 -0.000000 0.000000 2.005974 1.145992 -2.342689 -4.319839 -13.870869 -73.728361 11.113712 -19.073699 -6.585443 3.957578 -6.062992 11.194006 -4.890039 12.778673 11.364094 3.923824 8.808492 1.541339 0.000001 0.000002 0.000002 0.798357 -5.804887 -23.820293 -0.031336 0.083351 -21.833328 0.000003 0.000000 0.000002 -0.500175 -4.886416 -27.415756 0.012407 0.065849 -24.729730 0.000001 0.000001 0.000004 -1.404773 -5.106896 -30.687394 -0.020318 0.031974 -28.445562 0.000002 -0.000001 -0.000004 -3.404125 -5.393340 -36.341285 0.008110 0.030730 -31.268866 -0.000003 0.000003 0.000004 -0.000002 -0.000000 0.000000 2.950934 0.284631 6.847826 1.579901 13.517860 70.245367 6.665115 16.606244 6.186523 -14.033456 0.397856 -10.132032 -0.776949 -20.519077 -5.078247 4.551417 -11.071556 -2.305106 0.000000 -0.000000 -0.000002 0.699915 1.766042 23.002431 -0.051396 -0.110585 19.800676 -0.000000 -0.000000 -0.000000 -0.269221 2.207746 25.359671 -0.009795 -0.020870 21.387551 0.000001 0.000001 0.000005 -1.244606 3.469805 29.374991 -0.023054 -0.016654 24.111883 0.000001 0.000001 -0.000001 -2.614574 4.946220 33.674137 0.029179 -0.029992 26.950366 0.000000 -0.000002 -0.000005 -0.000001 0.000000 -0.000000 0.000000 -0.000000 -0.000000 0.000000 -0.000000 -0.000000 0.000000 -0.000000 -0.000000 0.000000 -0.000000 -0.000000 0.000000 -0.000000 -0.000000 -0.000000 -0.000000 0.000000 0.000000 -0.000000 -0.000000 0.000000 -0.000000 -0.000000 -0.000000 -0.000000 0.000000 -0.000000 0.000000 0.000000 -0.000000 0.000000 0.000000 -0.000000 -0.000000 -0.000000 
2.525403 79.267265 39.303528 -1.328673 4.970681 -4.995278 0.000000 0.000001 0.000000 5.591412 7.171078 14.928799 34.350227 1.305973 1.752354 14.171015 1.592291 -5.871478 0.000001 -0.000001 0.000001 0.000001 -0.000001 0.000000 -0.000004 -0.000001 -0.000000 -27.814468 -6.333955 5.267209 29.400703 3.793963 0.992963 0.781577 1.230540 -4.754417 0.000000 0.000000 0.000000 0.000000 0.000000 0.000000 0.000000 0.000000 -0.000000 14.325987 -1.265429 4.969337 -3.704777 -2.082183 0.293207 -4.530374 -1.980015 0.267655 -3.499385 -0.453943 5.164258 -8.005187 2.759844 -5.419768 0.000000 0.000000 -0.000000 0.000000 0.000000 -0.000000 0.000000 0.000000 -0.000000 2.040545 1.474419 -1.720932 -4.389229 -12.516173 -73.965546 9.383814 -17.552217 -7.619866 6.229848 -5.800961 10.878062 -4.916643 12.897947 11.344805 3.835252 8.736737 1.610766 -0.000000 -0.000001 0.000002 0.686013 -6.038329 -24.243444 -0.031625 0.080148 -21.955402 -0.000002 -0.000002 0.000001 -0.550548 -5.161087 -27.835135 0.009558 0.049060 -24.733766 0.000001 -0.000001 -0.000002 -1.516733 -5.483498 -31.404325 -0.017658 0.028594 -28.391853 -0.000004 0.000001 -0.000002 -3.454041 -5.821497 -36.800912 0.006000 0.027224 -31.278182 -0.000001 0.000003 0.000002 0.000002 -0.000000 0.000001 3.040141 0.124984 6.991992 1.803721 16.179596 69.682293 7.090053 17.344828 5.991860 -15.780858 -0.095453 -10.335748 -0.779403 -20.554187 -5.076658 4.544549 -11.070746 -2.314963 -0.000000 0.000001 0.000001 0.700251 1.717965 23.078714 -0.049549 -0.103696 19.826012 0.000001 0.000001 0.000002 -0.268237 2.217979 25.420977 -0.008699 -0.017943 21.389825 0.000001 0.000001 0.000002 -1.253121 3.541245 29.453415 -0.020067 -0.015095 24.102387 -0.000000 -0.000001 -0.000005 -2.632264 5.064859 33.727351 0.025678 -0.026890 26.943201 -0.000003 -0.000001 -0.000000 0.000002 -0.000001 0.000000 -0.000000 -0.000000 -0.000000 -0.000000 -0.000000 -0.000000 -0.000000 -0.000000 -0.000000 -0.000000 -0.000000 -0.000000 -0.000000 -0.000000 -0.000000 -0.000001 -0.000000 -0.000000 -0.000000 -0.000000 -0.000000 -0.000000 -0.000000 -0.000000 -0.000001 -0.000000 -0.000000 0.000001 -0.000000 0.000000 0.000001 -0.000000 0.000000 0.000000 0.000001 0.000000 
1.975390 79.155426 41.794415 -1.356809 5.407818 -5.544031 0.000000 0.000000 0.000001 -1.357979 2.497670 15.262220 45.181551 5.414739 2.621757 23.920036 0.276958 -4.623944 -0.000000 0.000001 -0.000001 -0.000000 0.000001 -0.000000 -0.000001 0.000000 -0.000001 -26.447618 -6.900073 6.385989 31.099351 3.458834 0.967251 -1.061569 1.573482 -5.943748 -0.000000 -0.000000 -0.000000 -0.000000 -0.000000 -0.000000 -0.000000 0.000000 -0.000000 14.287335 -1.264475 5.854398 -3.984673 -2.186518 0.090468 -4.612192 -2.069512 0.141195 -3.085018 -0.433479 5.171525 -7.238120 2.647162 -5.030131 -0.000000 0.000000 -0.000000 -0.000000 0.000000 -0.000000 -0.000000 0.000000 -0.000000 2.104605 1.980775 -1.490405 -4.441345 -11.829350 -73.977513 10.225203 -16.291150 -7.909816 5.108316 -4.900262 10.487243 -4.938504 13.010199 11.329575 3.755968 8.672562 1.672485 -0.000001 -0.000001 0.000002 0.588655 -6.234357 -24.601115 -0.032035 0.076768 -22.058581 0.000002 0.000001 -0.000002 -0.597347 -5.392480 -28.200613 0.006892 0.034724 -24.737164 0.000003 -0.000003 -0.000002 -1.624874 -5.798137 -32.066451 -0.014908 0.025130 -28.338313 -0.000001 0.000001 -0.000004 -3.498349 -6.186546 -37.252518 0.003751 0.023572 -31.287655 0.000003 0.000003 0.000000 0.000001 0.000001 -0.000000 3.141256 0.030165 6.827333 1.560866 18.399411 69.211434 7.466547 18.014831 5.694070 -17.031568 -0.255018 -10.558867 -0.779927 -20.554437 -5.076474 4.544044 -11.070781 -2.314993 -0.000001 -0.000000 -0.000001 0.711604 1.655006 23.111229 -0.047659 -0.096496 19.848217 0.000001 -0.000001 -0.000002 -0.268284 2.212992 25.448236 -0.007367 -0.014931 21.408755 0.000004 0.000001 0.000003 -1.260473 3.570598 29.478833 -0.016936 -0.013605 24.119526 -0.000001 0.000002 0.000001 -2.654819 5.133723 33.753979 0.022029 -0.023756 26.958302 -0.000001 0.000001 0.000004 0.000000 -0.000001 0.000001 0.000000 0.000000 0.000000 0.000000 0.000000 0.000000 0.000000 0.000000 0.000000 0.000000 0.000000 0.000000 0.000000 0.000000 0.000000 0.000000 0.000000 -0.000000 0.000000 0.000000 0.000000 0.000000 0.000000 0.000000 0.000000 0.000000 -0.000000 0.000001 0.000000 -0.000000 0.000001 0.000000 -0.000000 0.000000 0.000000 0.000001 
